Coordinates
version=1
nRows=29
nColumns=22
inDegrees=yes

Units are S.I. units (second, meters, Newtons, ...)
If the header above contains a line with 'inDegrees', this indicates whether rotational values are in degrees (yes) or radians (no).

endheader
time	pelvis_tilt	pelvis_list	pelvis_rotation	pelvis_tx	pelvis_ty	pelvis_tz	hip_flexion_r	hip_adduction_r	hip_rotation_r	knee_angle_r	ankle_angle_r	subtalar_angle_r	hip_flexion_l	hip_adduction_l	hip_rotation_l	knee_angle_l	ankle_angle_l	subtalar_angle_l	lumbar_extension	lumbar_bending	lumbar_rotation
      1.88000000	     -1.06534784	     -0.98621901	     42.84800886	      0.76748568	      0.90174767	      1.02022577	     27.84400645	     -3.09452399	      9.42393031	     -4.79153629	      8.16033736	     16.20304342	     -9.03252371	      7.42271527	     19.48036029	    -17.32539519	     19.91593884	    -14.23104268	     -7.44619119	     -2.09547777	     -9.59019643
      1.89000000	     -1.17436729	     -0.83052312	     43.36304866	      0.77438403	      0.89959143	      1.01466546	     27.95976293	     -3.22994345	      9.20145909	     -4.67434641	      8.20893256	     16.11881660	     -9.68803387	      7.44793925	     19.81554100	    -17.35525811	     20.05542703	    -14.31057038	     -7.37532163	     -2.30621111	     -9.79718415
      1.90000000	     -1.25459058	     -0.68785114	     43.87334390	      0.78132973	      0.89751359	      1.00894616	     28.09156696	     -3.32552934	      8.99008747	     -4.87219868	      8.26809433	     15.96093085	    -10.33029373	      7.44845587	     20.14038163	    -17.45250804	     20.15944273	    -14.41562342	     -7.32525125	     -2.46593612	     -9.99127195
      1.91000000	     -1.29988061	     -0.56827703	     44.37681921	      0.78836682	      0.89554433	      1.00306736	     28.22433514	     -3.36762746	      8.80161951	     -5.34457072	      8.30873470	     15.65780667	    -10.96088431	      7.40910679	     20.44533110	    -17.60806567	     20.20286485	    -14.59576287	     -7.28832290	     -2.56483236	    -10.17610282
      1.92000000	     -1.32642050	     -0.49740208	     44.86447080	      0.79549165	      0.89365627	      0.99703746	     28.39243556	     -3.34667578	      8.65007101	     -6.07304790	      8.28597988	     15.37723551	    -11.54158540	      7.33100465	     20.76438577	    -17.83584479	     20.17918912	    -14.71172851	     -7.22573669	     -2.59791914	    -10.28623583
      1.93000000	     -1.32306838	     -0.45821466	     45.33100717	      0.80275569	      0.89190778	      0.99085497	     28.54775619	     -3.26377565	      8.59520160	     -6.98667249	      8.18330936	     14.84877480	    -12.10188079	      7.21004252	     21.02361110	    -18.11120643	     20.11071984	    -14.91747748	     -7.15245864	     -2.57019119	    -10.41238030
      1.94000000	     -1.28312493	     -0.48366425	     45.77465921	      0.81018619	      0.89030755	      0.98450721	     28.71617109	     -3.09182034	      8.56877816	     -8.07305771	      7.98037405	     14.47310991	    -12.62677534	      7.01790147	     21.26043612	    -18.42534757	     19.92920346	    -15.01303954	     -7.03763157	     -2.45542197	    -10.48873708
      1.95000000	     -1.20266221	     -0.56905952	     46.17364611	      0.81779879	      0.88888413	      0.97804467	     28.88370377	     -2.82018685	      8.61803102	     -9.27657251	      7.62395671	     14.03751859	    -13.10371022	      6.76536482	     21.43243651	    -18.80799032	     19.65348979	    -15.09006624	     -6.88941726	     -2.26043264	    -10.47286366
      1.96000000	     -1.08488572	     -0.71012168	     46.52062788	      0.82560573	      0.88765938	      0.97148505	     29.05447163	     -2.45063708	      8.76194945	    -10.57452655	      7.13415255	     13.62473657	    -13.53737475	      6.45612732	     21.52027986	    -19.24136976	     19.29682016	    -15.11138179	     -6.70729081	     -1.99398134	    -10.41653584
      1.97000000	     -0.92281690	     -0.91278521	     46.81937235	      0.83359781	      0.88666179	      0.96480194	     29.23207573	     -1.98164087	      8.93290963	    -11.94858765	      6.54362310	     13.31059505	    -13.92219796	      6.08756816	     21.54214898	    -19.73730298	     18.81200733	    -15.07496625	     -6.48624354	     -1.64420778	    -10.28856649
      1.98000000	     -0.72220009	     -1.18370253	     47.06753213	      0.84175843	      0.88589029	      0.95800291	     29.42845208	     -1.41471464	      9.12033880	    -13.37771095	      5.88207400	     13.03858974	    -14.23336731	      5.66520655	     21.47061315	    -20.31477714	     18.19503919	    -14.96089123	     -6.21759024	     -1.21223535	    -10.09648096
      1.99000000	     -0.48247318	     -1.51270481	     47.26507617	      0.85010857	      0.88536615	      0.95111234	     29.63086724	     -0.75963645	      9.30378060	    -14.83304876	      5.18835590	     12.85505006	    -14.46925630	      5.19363141	     21.28731379	    -20.98561586	     17.41567895	    -14.77807771	     -5.90947453	     -0.71305965	     -9.86367102
      2.00000000	     -0.22977399	     -1.90547134	     47.40780279	      0.85861188	      0.88503859	      0.94411658	     29.87496736	     -0.03859205	      9.44869006	    -16.31941925	      4.51650840	     12.74726417	    -14.59758026	      4.69722977	     21.00163638	    -21.76103701	     16.48744656	    -14.37071216	     -5.53691205	     -0.16206121	     -9.55670686
      2.01000000	      0.05918428	     -2.31745073	     47.52258903	      0.86721767	      0.88499556	      0.93698578	     30.07445862	      0.71399032	      9.54992896	    -17.76948476	      3.89660210	     12.76730685	    -14.65137096	      4.18293110	     20.58579605	    -22.65981723	     15.32724344	    -13.92666732	     -5.16297788	      0.43054512	     -9.25325944
      2.02000000	      0.36198792	     -2.73798177	     47.61721089	      0.87589700	      0.88520536	      0.92971908	     30.23785850	      1.46502140	      9.58345258	    -19.17821797	      3.37541770	     12.88128661	    -14.61668754	      3.66985058	     20.04952761	    -23.67951612	     13.93268428	    -13.36444587	     -4.78245276	      1.03406997	     -8.95217556
      2.03000000	      0.66406734	     -3.13325965	     47.71749391	      0.88458971	      0.88566387	      0.92232983	     30.33493918	      2.16609578	      9.54395568	    -20.51443794	      2.99996936	     13.08195747	    -14.48784688	      3.18353086	     19.41362063	    -24.84097994	     12.27050668	    -12.63403703	     -4.42047742	      1.60689959	     -8.70710871
      2.04000000	      0.98118227	     -3.51718807	     47.79966201	      0.89334516	      0.88635930	      0.91483980	     30.34122965	      2.85302983	      9.47318671	    -21.73276206	      2.70294651	     13.27776027	    -14.27472268	      2.69398133	     18.63196703	    -26.11597474	     10.37505012	    -11.96518657	     -4.07563780	      2.16994556	     -8.44544154
      2.05000000	      1.26038283	     -3.82326201	     47.94409822	      0.90193795	      0.88726405	      0.90724806	     30.26160719	      3.39347386	      9.28171948	    -22.86150123	      2.60432079	     13.54317109	    -13.92854367	      2.27590587	     17.80374042	    -27.58186563	      8.16950325	    -10.99025684	     -3.78713005	      2.62435393	     -8.27466191
      2.06000000	      1.52434473	     -4.05899031	     48.14364618	      0.91038739	      0.88838101	      0.89958230	     30.06035918	      3.82115484	      9.02134636	    -23.85490476	      2.65360285	     13.77054046	    -13.46210926	      1.89151224	     16.90236269	    -29.21506376	      5.67625708	     -9.99153872	     -3.56463672	      2.99363686	     -8.18548908
      2.07000000	      1.76390288	     -4.22349173	     48.42213203	      0.91861868	      0.88966390	      0.89185381	     29.75238479	      4.11774779	      8.65175747	    -24.72631590	      2.86752228	     13.94806797	    -12.84304683	      1.53688144	     15.94942345	    -31.04221272	      2.90314256	     -8.95210695	     -3.40933829	      3.26867690	     -8.16677550
      2.08000000	      1.97235704	     -4.31848617	     48.78266130	      0.92657106	      0.89106591	      0.88416938	     29.35169667	      4.29222062	      8.21648242	    -25.47795307	      3.16555807	     14.03481216	    -12.02049240	      1.19984859	     14.90752512	    -33.11294998	     -0.12372161	     -7.98014559	     -3.33093198	      3.44006701	     -8.23279785
      2.09000000	      2.16073034	     -4.35731401	     49.25210918	      0.93417691	      0.89254694	      0.87654163	     28.86387710	      4.35319893	      7.68482294	    -26.11257002	      3.57227857	     14.02728365	    -10.96835202	      0.84698239	     13.80587802	    -35.44779998	     -3.38144831	     -7.12105680	     -3.33224470	      3.52988066	     -8.38758367
      2.10000000	      2.34254063	     -4.36398391	     49.83700628	      0.94140161	      0.89405294	      0.86902896	     28.30457577	      4.33420272	      7.05793402	    -26.63374384	      4.05223663	     13.91794456	     -9.65474241	      0.43514776	     12.64011469	    -38.06419930	     -6.83052899	     -6.47456776	     -3.41002668	      3.56851066	     -8.61748044
      2.11000000	      2.53429173	     -4.36847952	     50.53959793	      0.94822423	      0.89552955	      0.86168850	     27.69374517	      4.27895576	      6.34528250	    -27.04486259	      4.56329478	     13.70650909	     -8.05724285	     -0.08225244	     11.42507674	    -40.95843186	    -10.41705113	     -6.10003962	     -3.55558259	      3.59512252	     -8.91114208
      2.12000000	      2.74063770	     -4.41016695	     51.35594394	      0.95465044	      0.89689150	      0.85456291	     27.06664739	      4.23036698	      5.56412741	    -27.35190214	      5.11765479	     13.36956448	     -6.15484659	     -0.73634322	     10.20859803	    -44.10184309	    -14.04608781	     -6.05651028	     -3.73515989	      3.64501921	     -9.25332600
      2.13000000	      3.00619887	     -4.49175936	     52.26552170	      0.96072301	      0.89818134	      0.84764887	     26.39289004	      4.23843630	      4.71285728	    -27.53972075	      5.60948246	     12.94746063	     -4.01969661	     -1.55102303	      9.04658406	    -47.40939279	    -17.59615874	     -6.31791583	     -3.97125151	      3.76510004	     -9.59048601
      2.14000000	      3.35269971	     -4.61055103	     53.24469305	      0.96646885	      0.89940313	      0.84095321	     25.67190828	      4.34178053	      3.83804661	    -27.63195389	      6.07131928	     12.45420518	     -1.72677579	     -2.48137647	      8.08434099	    -50.78860658	    -20.88600667	     -6.76147037	     -4.27724561	      3.98024723	     -9.89804218
      2.15000000	      3.76347327	     -4.74531723	     54.26881658	      0.97193708	      0.90060681	      0.83437684	     24.87435147	      4.51865315	      2.95705466	    -27.58665640	      6.49442441	     11.91101463	      0.65214869	     -3.45128198	      7.36872686	    -54.13119321	    -23.68520134	     -7.20194767	     -4.63454012	      4.26855578	    -10.14771132
      2.16000000	      4.24175043	     -4.86887099	     55.30638168	      0.97712717	      0.90185228	      0.82787197	     23.98692939	      4.76841015	      2.09947773	    -27.42098681	      6.86048998	     11.37123069	      3.03547324	     -4.36475908	      6.97288484	    -57.35972918	    -25.81548944	     -7.43403433	     -5.06177643	      4.62961964	    -10.30846495
